<mxfile host="app.diagrams.net" modified="2023-03-21T05:50:06.838Z" agent="5.0 (Windows NT 10.0; Win64; x64) AppleWebKit/537.36 (KHTML, like Gecko) Chrome/111.0.0.0 Safari/537.36" etag="dq8TnTkkJEoENUximGIh" version="21.0.8" type="github">
  <diagram name="第 1 页" id="tH8X5Ct7GdnYIzQljAsK">
    <mxGraphModel dx="1520" dy="713" grid="1" gridSize="10" guides="1" tooltips="1" connect="1" arrows="1" fold="1" page="1" pageScale="1" pageWidth="1169" pageHeight="827" math="1" shadow="0">
      <root>
        <mxCell id="0" />
        <mxCell id="1" parent="0" />
        <mxCell id="6r-kIz0hGhgCBuONI5xw-3" value="" style="edgeStyle=orthogonalEdgeStyle;rounded=0;orthogonalLoop=1;jettySize=auto;html=1;fontSize=15;fontFamily=微软雅黑;" parent="1" source="6r-kIz0hGhgCBuONI5xw-1" target="6r-kIz0hGhgCBuONI5xw-2" edge="1">
          <mxGeometry relative="1" as="geometry" />
        </mxCell>
        <mxCell id="6r-kIz0hGhgCBuONI5xw-1" value="开始" style="rounded=1;whiteSpace=wrap;html=1;fontSize=15;fontFamily=微软雅黑;" parent="1" vertex="1">
          <mxGeometry x="340" y="140" width="120" height="60" as="geometry" />
        </mxCell>
        <mxCell id="6r-kIz0hGhgCBuONI5xw-5" value="" style="edgeStyle=orthogonalEdgeStyle;rounded=0;orthogonalLoop=1;jettySize=auto;html=1;fontSize=15;fontFamily=微软雅黑;" parent="1" source="6r-kIz0hGhgCBuONI5xw-2" target="6r-kIz0hGhgCBuONI5xw-4" edge="1">
          <mxGeometry relative="1" as="geometry" />
        </mxCell>
        <mxCell id="6r-kIz0hGhgCBuONI5xw-2" value="读取材料属性" style="rounded=0;whiteSpace=wrap;html=1;fontSize=15;fontFamily=微软雅黑;" parent="1" vertex="1">
          <mxGeometry x="340" y="230" width="120" height="60" as="geometry" />
        </mxCell>
        <mxCell id="6r-kIz0hGhgCBuONI5xw-7" value="" style="edgeStyle=orthogonalEdgeStyle;rounded=0;orthogonalLoop=1;jettySize=auto;html=1;fontSize=15;fontFamily=微软雅黑;" parent="1" source="6r-kIz0hGhgCBuONI5xw-4" target="6r-kIz0hGhgCBuONI5xw-6" edge="1">
          <mxGeometry relative="1" as="geometry" />
        </mxCell>
        <mxCell id="6r-kIz0hGhgCBuONI5xw-4" value="计算刚度矩阵" style="whiteSpace=wrap;html=1;rounded=0;fontSize=15;fontFamily=微软雅黑;" parent="1" vertex="1">
          <mxGeometry x="340" y="310" width="120" height="60" as="geometry" />
        </mxCell>
        <mxCell id="6r-kIz0hGhgCBuONI5xw-9" value="" style="edgeStyle=orthogonalEdgeStyle;rounded=0;orthogonalLoop=1;jettySize=auto;html=1;fontSize=15;fontFamily=微软雅黑;" parent="1" source="6r-kIz0hGhgCBuONI5xw-6" target="6r-kIz0hGhgCBuONI5xw-8" edge="1">
          <mxGeometry relative="1" as="geometry" />
        </mxCell>
        <mxCell id="6r-kIz0hGhgCBuONI5xw-6" value="更新应力应变" style="whiteSpace=wrap;html=1;rounded=0;fontSize=15;fontFamily=微软雅黑;" parent="1" vertex="1">
          <mxGeometry x="340" y="390" width="120" height="60" as="geometry" />
        </mxCell>
        <mxCell id="6r-kIz0hGhgCBuONI5xw-13" value="" style="edgeStyle=orthogonalEdgeStyle;rounded=0;orthogonalLoop=1;jettySize=auto;html=1;fontSize=15;entryX=0.5;entryY=0;entryDx=0;entryDy=0;exitX=0;exitY=0.5;exitDx=0;exitDy=0;fontFamily=微软雅黑;" parent="1" source="6r-kIz0hGhgCBuONI5xw-8" target="6r-kIz0hGhgCBuONI5xw-12" edge="1">
          <mxGeometry relative="1" as="geometry">
            <Array as="points">
              <mxPoint x="290" y="510" />
              <mxPoint x="290" y="290" />
              <mxPoint x="195" y="290" />
            </Array>
          </mxGeometry>
        </mxCell>
        <mxCell id="dNLBxnli_luOGMNEjt3j-31" style="edgeStyle=orthogonalEdgeStyle;rounded=0;orthogonalLoop=1;jettySize=auto;html=1;exitX=1;exitY=0.5;exitDx=0;exitDy=0;entryX=0;entryY=0.5;entryDx=0;entryDy=0;fontSize=15;fontFamily=微软雅黑;" edge="1" parent="1" source="6r-kIz0hGhgCBuONI5xw-8" target="dNLBxnli_luOGMNEjt3j-18">
          <mxGeometry relative="1" as="geometry" />
        </mxCell>
        <mxCell id="dNLBxnli_luOGMNEjt3j-32" style="edgeStyle=none;rounded=0;orthogonalLoop=1;jettySize=auto;html=1;exitX=1;exitY=0.5;exitDx=0;exitDy=0;entryX=0;entryY=0.5;entryDx=0;entryDy=0;fontSize=15;fontFamily=微软雅黑;" edge="1" parent="1" source="6r-kIz0hGhgCBuONI5xw-8" target="dNLBxnli_luOGMNEjt3j-19">
          <mxGeometry relative="1" as="geometry" />
        </mxCell>
        <mxCell id="6r-kIz0hGhgCBuONI5xw-8" value="求解损伤变量" style="shape=process;whiteSpace=wrap;html=1;backgroundOutline=1;rounded=0;fontSize=15;fontFamily=微软雅黑;" parent="1" vertex="1">
          <mxGeometry x="340" y="480" width="120" height="60" as="geometry" />
        </mxCell>
        <mxCell id="dNLBxnli_luOGMNEjt3j-2" value="" style="edgeStyle=orthogonalEdgeStyle;rounded=0;orthogonalLoop=1;jettySize=auto;html=1;fontSize=15;exitX=0.5;exitY=1;exitDx=0;exitDy=0;fontFamily=微软雅黑;" edge="1" parent="1" source="6r-kIz0hGhgCBuONI5xw-12" target="dNLBxnli_luOGMNEjt3j-1">
          <mxGeometry relative="1" as="geometry" />
        </mxCell>
        <mxCell id="dNLBxnli_luOGMNEjt3j-12" value="是" style="edgeLabel;html=1;align=center;verticalAlign=middle;resizable=0;points=[];fontSize=15;fontFamily=微软雅黑;" vertex="1" connectable="0" parent="dNLBxnli_luOGMNEjt3j-2">
          <mxGeometry x="-0.5148" relative="1" as="geometry">
            <mxPoint y="10" as="offset" />
          </mxGeometry>
        </mxCell>
        <mxCell id="dNLBxnli_luOGMNEjt3j-10" style="edgeStyle=orthogonalEdgeStyle;rounded=0;orthogonalLoop=1;jettySize=auto;html=1;exitX=0;exitY=0.5;exitDx=0;exitDy=0;fontSize=15;entryX=0.5;entryY=0;entryDx=0;entryDy=0;fontFamily=微软雅黑;" edge="1" parent="1" source="6r-kIz0hGhgCBuONI5xw-12" target="dNLBxnli_luOGMNEjt3j-5">
          <mxGeometry relative="1" as="geometry">
            <mxPoint x="100" y="610" as="targetPoint" />
            <Array as="points">
              <mxPoint x="90" y="360" />
              <mxPoint x="90" y="630" />
              <mxPoint x="195" y="630" />
            </Array>
          </mxGeometry>
        </mxCell>
        <mxCell id="dNLBxnli_luOGMNEjt3j-11" value="否" style="edgeLabel;html=1;align=center;verticalAlign=middle;resizable=0;points=[];fontSize=15;fontFamily=微软雅黑;" vertex="1" connectable="0" parent="dNLBxnli_luOGMNEjt3j-10">
          <mxGeometry x="-0.1822" relative="1" as="geometry">
            <mxPoint y="22" as="offset" />
          </mxGeometry>
        </mxCell>
        <mxCell id="6r-kIz0hGhgCBuONI5xw-12" value="$$d&amp;lt;1 \&amp;nbsp; ?$$" style="rhombus;whiteSpace=wrap;html=1;rounded=0;fontSize=15;fontFamily=微软雅黑;" parent="1" vertex="1">
          <mxGeometry x="130" y="320" width="130" height="80" as="geometry" />
        </mxCell>
        <mxCell id="dNLBxnli_luOGMNEjt3j-4" value="" style="edgeStyle=orthogonalEdgeStyle;rounded=0;orthogonalLoop=1;jettySize=auto;html=1;fontSize=15;fontFamily=微软雅黑;" edge="1" parent="1" source="dNLBxnli_luOGMNEjt3j-1" target="dNLBxnli_luOGMNEjt3j-3">
          <mxGeometry relative="1" as="geometry" />
        </mxCell>
        <mxCell id="dNLBxnli_luOGMNEjt3j-1" value="计算含损伤刚度矩阵" style="whiteSpace=wrap;html=1;rounded=0;fontSize=15;fontFamily=微软雅黑;" vertex="1" parent="1">
          <mxGeometry x="120" y="450" width="150" height="60" as="geometry" />
        </mxCell>
        <mxCell id="dNLBxnli_luOGMNEjt3j-6" value="" style="edgeStyle=orthogonalEdgeStyle;rounded=0;orthogonalLoop=1;jettySize=auto;html=1;fontSize=15;exitX=0.5;exitY=1;exitDx=0;exitDy=0;fontFamily=微软雅黑;" edge="1" parent="1" source="dNLBxnli_luOGMNEjt3j-3" target="dNLBxnli_luOGMNEjt3j-5">
          <mxGeometry relative="1" as="geometry" />
        </mxCell>
        <mxCell id="dNLBxnli_luOGMNEjt3j-3" value="更新应力状态" style="whiteSpace=wrap;html=1;rounded=0;fontSize=15;fontFamily=微软雅黑;" vertex="1" parent="1">
          <mxGeometry x="135" y="550" width="120" height="60" as="geometry" />
        </mxCell>
        <mxCell id="dNLBxnli_luOGMNEjt3j-8" value="" style="edgeStyle=orthogonalEdgeStyle;rounded=0;orthogonalLoop=1;jettySize=auto;html=1;fontSize=15;fontFamily=微软雅黑;" edge="1" parent="1" source="dNLBxnli_luOGMNEjt3j-5" target="dNLBxnli_luOGMNEjt3j-7">
          <mxGeometry relative="1" as="geometry" />
        </mxCell>
        <mxCell id="dNLBxnli_luOGMNEjt3j-15" value="是" style="edgeLabel;html=1;align=center;verticalAlign=middle;resizable=0;points=[];fontSize=15;fontFamily=微软雅黑;" vertex="1" connectable="0" parent="dNLBxnli_luOGMNEjt3j-8">
          <mxGeometry x="0.1802" relative="1" as="geometry">
            <mxPoint as="offset" />
          </mxGeometry>
        </mxCell>
        <mxCell id="dNLBxnli_luOGMNEjt3j-13" style="edgeStyle=orthogonalEdgeStyle;rounded=0;orthogonalLoop=1;jettySize=auto;html=1;entryX=0;entryY=0.5;entryDx=0;entryDy=0;fontSize=15;exitX=0;exitY=0.5;exitDx=0;exitDy=0;fontFamily=微软雅黑;" edge="1" parent="1" source="dNLBxnli_luOGMNEjt3j-5" target="6r-kIz0hGhgCBuONI5xw-2">
          <mxGeometry relative="1" as="geometry">
            <mxPoint x="120" y="660" as="sourcePoint" />
            <mxPoint x="320" y="259.97" as="targetPoint" />
            <Array as="points">
              <mxPoint x="50" y="690" />
              <mxPoint x="50" y="260" />
            </Array>
          </mxGeometry>
        </mxCell>
        <mxCell id="dNLBxnli_luOGMNEjt3j-14" value="否" style="edgeLabel;html=1;align=center;verticalAlign=middle;resizable=0;points=[];fontSize=15;fontFamily=微软雅黑;" vertex="1" connectable="0" parent="dNLBxnli_luOGMNEjt3j-13">
          <mxGeometry x="0.0501" relative="1" as="geometry">
            <mxPoint y="116" as="offset" />
          </mxGeometry>
        </mxCell>
        <mxCell id="dNLBxnli_luOGMNEjt3j-5" value="计算是否结束？" style="rhombus;whiteSpace=wrap;html=1;rounded=0;fontSize=15;fontFamily=微软雅黑;" vertex="1" parent="1">
          <mxGeometry x="125" y="650" width="140" height="80" as="geometry" />
        </mxCell>
        <mxCell id="dNLBxnli_luOGMNEjt3j-7" value="结束" style="rounded=1;whiteSpace=wrap;html=1;fontSize=15;fontFamily=微软雅黑;" vertex="1" parent="1">
          <mxGeometry x="340" y="660" width="120" height="60" as="geometry" />
        </mxCell>
        <mxCell id="dNLBxnli_luOGMNEjt3j-21" value="" style="edgeStyle=orthogonalEdgeStyle;rounded=0;orthogonalLoop=1;jettySize=auto;html=1;fontSize=15;fontFamily=微软雅黑;" edge="1" parent="1" source="dNLBxnli_luOGMNEjt3j-18" target="dNLBxnli_luOGMNEjt3j-20">
          <mxGeometry relative="1" as="geometry" />
        </mxCell>
        <mxCell id="dNLBxnli_luOGMNEjt3j-18" value="纤维失效" style="rounded=0;whiteSpace=wrap;html=1;fontSize=15;fontFamily=微软雅黑;" vertex="1" parent="1">
          <mxGeometry x="510" y="260" width="120" height="60" as="geometry" />
        </mxCell>
        <mxCell id="dNLBxnli_luOGMNEjt3j-41" value="" style="edgeStyle=none;rounded=0;orthogonalLoop=1;jettySize=auto;html=1;fontSize=15;fontFamily=微软雅黑;" edge="1" parent="1" source="dNLBxnli_luOGMNEjt3j-19" target="dNLBxnli_luOGMNEjt3j-40">
          <mxGeometry relative="1" as="geometry" />
        </mxCell>
        <mxCell id="dNLBxnli_luOGMNEjt3j-19" value="基体失效" style="rounded=0;whiteSpace=wrap;html=1;fontSize=15;fontFamily=微软雅黑;" vertex="1" parent="1">
          <mxGeometry x="510" y="480" width="120" height="60" as="geometry" />
        </mxCell>
        <mxCell id="dNLBxnli_luOGMNEjt3j-23" value="" style="edgeStyle=orthogonalEdgeStyle;rounded=0;orthogonalLoop=1;jettySize=auto;html=1;fontSize=15;fontFamily=微软雅黑;" edge="1" parent="1" source="dNLBxnli_luOGMNEjt3j-20" target="dNLBxnli_luOGMNEjt3j-22">
          <mxGeometry relative="1" as="geometry" />
        </mxCell>
        <mxCell id="dNLBxnli_luOGMNEjt3j-39" value="是" style="edgeLabel;html=1;align=center;verticalAlign=middle;resizable=0;points=[];fontSize=15;fontFamily=微软雅黑;" vertex="1" connectable="0" parent="dNLBxnli_luOGMNEjt3j-23">
          <mxGeometry x="-0.2871" relative="1" as="geometry">
            <mxPoint as="offset" />
          </mxGeometry>
        </mxCell>
        <mxCell id="dNLBxnli_luOGMNEjt3j-27" value="" style="edgeStyle=orthogonalEdgeStyle;rounded=0;orthogonalLoop=1;jettySize=auto;html=1;fontSize=15;fontFamily=微软雅黑;" edge="1" parent="1" source="dNLBxnli_luOGMNEjt3j-20" target="dNLBxnli_luOGMNEjt3j-26">
          <mxGeometry relative="1" as="geometry">
            <Array as="points">
              <mxPoint x="725" y="350" />
              <mxPoint x="725" y="350" />
            </Array>
          </mxGeometry>
        </mxCell>
        <mxCell id="dNLBxnli_luOGMNEjt3j-38" value="否" style="edgeLabel;html=1;align=center;verticalAlign=middle;resizable=0;points=[];fontSize=15;fontFamily=微软雅黑;" vertex="1" connectable="0" parent="dNLBxnli_luOGMNEjt3j-27">
          <mxGeometry x="-0.1432" relative="1" as="geometry">
            <mxPoint as="offset" />
          </mxGeometry>
        </mxCell>
        <mxCell id="dNLBxnli_luOGMNEjt3j-20" value="$$\sigma_{11} \ge 1 \ ?$$" style="rhombus;whiteSpace=wrap;html=1;fontSize=15;rounded=0;fontFamily=微软雅黑;" vertex="1" parent="1">
          <mxGeometry x="660" y="250" width="130" height="80" as="geometry" />
        </mxCell>
        <mxCell id="dNLBxnli_luOGMNEjt3j-25" value="" style="edgeStyle=orthogonalEdgeStyle;rounded=0;orthogonalLoop=1;jettySize=auto;html=1;fontSize=15;fontFamily=微软雅黑;" edge="1" parent="1" source="dNLBxnli_luOGMNEjt3j-22" target="dNLBxnli_luOGMNEjt3j-24">
          <mxGeometry relative="1" as="geometry" />
        </mxCell>
        <mxCell id="dNLBxnli_luOGMNEjt3j-22" value="计算\(d_{\rm ft}\)" style="whiteSpace=wrap;html=1;fontSize=15;rounded=0;fontFamily=微软雅黑;" vertex="1" parent="1">
          <mxGeometry x="665" y="150" width="120" height="60" as="geometry" />
        </mxCell>
        <mxCell id="dNLBxnli_luOGMNEjt3j-34" value="" style="edgeStyle=none;rounded=0;orthogonalLoop=1;jettySize=auto;html=1;fontSize=15;fontFamily=微软雅黑;" edge="1" parent="1" source="dNLBxnli_luOGMNEjt3j-24" target="dNLBxnli_luOGMNEjt3j-33">
          <mxGeometry relative="1" as="geometry" />
        </mxCell>
        <mxCell id="dNLBxnli_luOGMNEjt3j-36" value="是" style="edgeLabel;html=1;align=center;verticalAlign=middle;resizable=0;points=[];fontSize=15;fontFamily=微软雅黑;" vertex="1" connectable="0" parent="dNLBxnli_luOGMNEjt3j-34">
          <mxGeometry x="-0.4906" y="-1" relative="1" as="geometry">
            <mxPoint x="1" y="10" as="offset" />
          </mxGeometry>
        </mxCell>
        <mxCell id="dNLBxnli_luOGMNEjt3j-24" value="$$d_{\rm ft} &amp;gt; 1 \&amp;nbsp; ?$$" style="rhombus;whiteSpace=wrap;html=1;fontSize=15;rounded=0;fontFamily=微软雅黑;" vertex="1" parent="1">
          <mxGeometry x="820" y="140" width="135" height="80" as="geometry" />
        </mxCell>
        <mxCell id="dNLBxnli_luOGMNEjt3j-29" value="" style="edgeStyle=orthogonalEdgeStyle;rounded=0;orthogonalLoop=1;jettySize=auto;html=1;fontSize=15;fontFamily=微软雅黑;" edge="1" parent="1" source="dNLBxnli_luOGMNEjt3j-26" target="dNLBxnli_luOGMNEjt3j-28">
          <mxGeometry relative="1" as="geometry" />
        </mxCell>
        <mxCell id="dNLBxnli_luOGMNEjt3j-26" value="计算\(d_{\rm fc}\)" style="whiteSpace=wrap;html=1;fontSize=15;rounded=0;fontFamily=微软雅黑;" vertex="1" parent="1">
          <mxGeometry x="665" y="370" width="120" height="60" as="geometry" />
        </mxCell>
        <mxCell id="dNLBxnli_luOGMNEjt3j-35" value="" style="edgeStyle=none;rounded=0;orthogonalLoop=1;jettySize=auto;html=1;fontSize=15;fontFamily=微软雅黑;" edge="1" parent="1" source="dNLBxnli_luOGMNEjt3j-28" target="dNLBxnli_luOGMNEjt3j-33">
          <mxGeometry relative="1" as="geometry" />
        </mxCell>
        <mxCell id="dNLBxnli_luOGMNEjt3j-37" value="是" style="edgeLabel;html=1;align=center;verticalAlign=middle;resizable=0;points=[];fontSize=15;fontFamily=微软雅黑;" vertex="1" connectable="0" parent="dNLBxnli_luOGMNEjt3j-35">
          <mxGeometry x="-0.1662" y="1" relative="1" as="geometry">
            <mxPoint as="offset" />
          </mxGeometry>
        </mxCell>
        <mxCell id="dNLBxnli_luOGMNEjt3j-28" value="$$d_{\rm fc} &amp;gt; 1 \&amp;nbsp; ?$$" style="rhombus;whiteSpace=wrap;html=1;fontSize=15;rounded=0;fontFamily=微软雅黑;" vertex="1" parent="1">
          <mxGeometry x="820" y="360" width="135" height="80" as="geometry" />
        </mxCell>
        <mxCell id="dNLBxnli_luOGMNEjt3j-33" value="更新纤维失效&lt;br style=&quot;font-size: 15px;&quot;&gt;损伤变量" style="rounded=0;whiteSpace=wrap;html=1;fontSize=15;fontFamily=微软雅黑;" vertex="1" parent="1">
          <mxGeometry x="827.5" y="260" width="120" height="60" as="geometry" />
        </mxCell>
        <mxCell id="dNLBxnli_luOGMNEjt3j-43" value="" style="edgeStyle=none;rounded=0;orthogonalLoop=1;jettySize=auto;html=1;fontSize=15;fontFamily=微软雅黑;" edge="1" parent="1" source="dNLBxnli_luOGMNEjt3j-40" target="dNLBxnli_luOGMNEjt3j-42">
          <mxGeometry relative="1" as="geometry" />
        </mxCell>
        <mxCell id="dNLBxnli_luOGMNEjt3j-45" value="" style="edgeStyle=none;rounded=0;orthogonalLoop=1;jettySize=auto;html=1;fontSize=15;fontFamily=微软雅黑;" edge="1" parent="1" source="dNLBxnli_luOGMNEjt3j-40" target="dNLBxnli_luOGMNEjt3j-44">
          <mxGeometry relative="1" as="geometry" />
        </mxCell>
        <mxCell id="dNLBxnli_luOGMNEjt3j-40" value="是否为&lt;br style=&quot;font-size: 15px;&quot;&gt;拉伸载荷？" style="rhombus;whiteSpace=wrap;html=1;fontSize=15;rounded=0;align=center;fontFamily=微软雅黑;" vertex="1" parent="1">
          <mxGeometry x="660" y="470" width="140" height="80" as="geometry" />
        </mxCell>
        <mxCell id="dNLBxnli_luOGMNEjt3j-49" value="" style="edgeStyle=none;rounded=0;orthogonalLoop=1;jettySize=auto;html=1;fontSize=15;fontFamily=微软雅黑;" edge="1" parent="1" source="dNLBxnli_luOGMNEjt3j-42" target="dNLBxnli_luOGMNEjt3j-48">
          <mxGeometry relative="1" as="geometry" />
        </mxCell>
        <mxCell id="dNLBxnli_luOGMNEjt3j-42" value="计算\(d_{\rm mt}\)" style="whiteSpace=wrap;html=1;fontSize=15;rounded=0;fontFamily=微软雅黑;" vertex="1" parent="1">
          <mxGeometry x="827.5" y="480" width="120" height="60" as="geometry" />
        </mxCell>
        <mxCell id="dNLBxnli_luOGMNEjt3j-47" value="" style="edgeStyle=none;rounded=0;orthogonalLoop=1;jettySize=auto;html=1;fontSize=15;fontFamily=微软雅黑;" edge="1" parent="1" source="dNLBxnli_luOGMNEjt3j-44" target="dNLBxnli_luOGMNEjt3j-46">
          <mxGeometry relative="1" as="geometry" />
        </mxCell>
        <mxCell id="dNLBxnli_luOGMNEjt3j-44" value="计算\(d_{\rm mc}\)" style="whiteSpace=wrap;html=1;fontSize=15;rounded=0;fontFamily=微软雅黑;" vertex="1" parent="1">
          <mxGeometry x="670" y="570" width="120" height="60" as="geometry" />
        </mxCell>
        <mxCell id="dNLBxnli_luOGMNEjt3j-52" value="" style="edgeStyle=none;rounded=0;orthogonalLoop=1;jettySize=auto;html=1;fontSize=15;fontFamily=微软雅黑;" edge="1" parent="1" source="dNLBxnli_luOGMNEjt3j-46" target="dNLBxnli_luOGMNEjt3j-50">
          <mxGeometry relative="1" as="geometry" />
        </mxCell>
        <mxCell id="dNLBxnli_luOGMNEjt3j-46" value="$$d_{\rm mc} &amp;gt; 1 \&amp;nbsp; ?$$" style="rhombus;whiteSpace=wrap;html=1;fontSize=15;rounded=0;fontFamily=微软雅黑;" vertex="1" parent="1">
          <mxGeometry x="662.5" y="650" width="135" height="80" as="geometry" />
        </mxCell>
        <mxCell id="dNLBxnli_luOGMNEjt3j-51" value="" style="edgeStyle=none;rounded=0;orthogonalLoop=1;jettySize=auto;html=1;fontSize=15;fontFamily=微软雅黑;" edge="1" parent="1" source="dNLBxnli_luOGMNEjt3j-48" target="dNLBxnli_luOGMNEjt3j-50">
          <mxGeometry relative="1" as="geometry" />
        </mxCell>
        <mxCell id="dNLBxnli_luOGMNEjt3j-48" value="$$d_{\rm mt} &amp;gt; 1 \&amp;nbsp; ?$$" style="rhombus;whiteSpace=wrap;html=1;fontSize=15;rounded=0;fontFamily=微软雅黑;" vertex="1" parent="1">
          <mxGeometry x="821.25" y="560" width="132.5" height="80" as="geometry" />
        </mxCell>
        <mxCell id="dNLBxnli_luOGMNEjt3j-50" value="更新基体失效&lt;br style=&quot;font-size: 15px;&quot;&gt;损伤变量" style="rounded=0;whiteSpace=wrap;html=1;fontSize=15;fontFamily=微软雅黑;" vertex="1" parent="1">
          <mxGeometry x="827.5" y="660" width="120" height="60" as="geometry" />
        </mxCell>
      </root>
    </mxGraphModel>
  </diagram>
</mxfile>
